# Blender 5.0.0
# www.blender.org
o Cube
v 0.059531 0.143517 0.125125
v 0.124381 -0.048306 0.125125
v 0.124381 -0.048306 0.524306
v 0.000000 0.143517 0.125125
v 0.000000 -0.048306 0.090443
v 0.000000 -0.048306 0.524306
v 0.124381 0.018813 0.125125
v 0.000000 0.018813 0.524306
v 0.124381 0.018813 0.524306
v 0.124381 -0.048306 -0.120028
v 0.059531 0.143517 -0.120028
v 0.000000 0.143517 -0.120028
v 0.000000 -0.048306 -0.120028
v 0.124381 0.018813 -0.120028
v 0.427632 -0.048306 0.125125
v 0.427632 -0.030575 0.125125
v 0.427632 -0.048306 -0.120028
v 0.427632 -0.030575 -0.120028
v 0.427632 -0.069831 0.289283
v 0.427632 0.035087 0.289283
v 0.531775 -0.069831 0.289283
v 0.531775 0.035087 0.289283
v 0.000000 -0.048306 0.200292
v 0.059531 0.143517 0.200292
v 0.000000 0.143517 0.200292
v 0.124381 -0.048306 0.200292
v 0.124381 0.018813 0.200292
v 0.092440 -0.048306 -0.264194
v 0.000000 -0.048306 -0.264194
v 0.092440 0.099322 -0.264194
v 0.000000 0.099322 -0.264194
v 0.427632 -0.069831 -0.306168
v 0.427632 0.035087 -0.306168
v 0.531775 -0.069831 -0.306168
v 0.531775 0.035087 -0.306168
v 0.000000 0.082876 -0.285568
v 0.000000 0.059477 -0.120217
v 0.000000 -0.008693 -0.120217
v 0.000000 -0.032091 -0.285568
v 0.075719 0.082876 -0.285568
v 0.075719 -0.032091 -0.285568
v 0.000000 0.059477 -0.120217
v 0.000000 -0.008693 -0.120217
v 0.444298 -0.053040 -0.328337
v 0.444298 0.018297 -0.328337
v 0.515109 -0.053040 -0.328337
v 0.515109 0.018297 -0.328337
v 0.458259 -0.038976 -0.048487
v 0.458259 0.004233 -0.048487
v 0.501148 -0.038976 -0.048487
v 0.501148 0.004233 -0.048487
v -0.059531 0.143517 0.125125
v -0.124381 -0.048306 0.125125
v -0.124381 -0.048306 0.524306
v -0.124381 0.018813 0.125125
v -0.124381 0.018813 0.524306
v -0.124381 -0.048306 -0.120028
v -0.059531 0.143517 -0.120028
v -0.124381 0.018813 -0.120028
v -0.427632 -0.048306 0.125125
v -0.427632 -0.030575 0.125125
v -0.427632 -0.048306 -0.120028
v -0.427632 -0.030575 -0.120028
v -0.427632 -0.069831 0.289283
v -0.427632 0.035087 0.289283
v -0.531775 -0.069831 0.289283
v -0.531775 0.035087 0.289283
v -0.059531 0.143517 0.200292
v -0.124381 -0.048306 0.200292
v -0.124381 0.018813 0.200292
v -0.092440 -0.048306 -0.264194
v -0.092440 0.099322 -0.264194
v -0.427632 -0.069831 -0.306168
v -0.427632 0.035087 -0.306168
v -0.531775 -0.069831 -0.306168
v -0.531775 0.035087 -0.306168
v -0.075719 0.082876 -0.285568
v -0.075719 -0.032091 -0.285568
v -0.444298 -0.053040 -0.328337
v -0.444298 0.018297 -0.328337
v -0.515109 -0.053040 -0.328337
v -0.515109 0.018297 -0.328337
v -0.458259 -0.038976 -0.048487
v -0.458259 0.004233 -0.048487
v -0.501148 -0.038976 -0.048487
v -0.501148 0.004233 -0.048487
vn 0.8872 0.4614 -0.0000
vn 0.9763 -0.0000 -0.2163
vn -0.0000 0.9561 -0.2931
vn 0.8856 0.4605 0.0610
vn 1.0000 -0.0000 -0.0000
vn -0.0000 -0.0000 1.0000
vn -0.0000 1.0000 -0.0000
vn -0.0000 -1.0000 -0.0000
vn -1.0000 -0.0000 -0.0000
vn -0.0000 -0.0000 -1.0000
vn 0.1607 0.9870 -0.0000
vn -0.0000 0.9333 0.3592
vn -0.0000 0.9901 0.1401
vn 0.9092 -0.0000 0.4164
vn -0.0000 0.7925 -0.6098
vn 0.7876 -0.0000 -0.6161
vn -0.0000 -0.7967 -0.6044
vn -0.0000 -0.7972 -0.6037
vn 0.7993 -0.0000 -0.6009
vn -0.7993 -0.0000 -0.6009
vn -0.0000 0.7972 -0.6037
vn -0.0000 0.9987 -0.0502
vn -0.9988 -0.0000 -0.0498
vn -0.0000 -0.9987 -0.0502
vn 0.9988 -0.0000 -0.0498
vn -0.8872 0.4614 -0.0000
vn -0.9763 -0.0000 -0.2163
vn -0.8856 0.4605 0.0610
vn -0.1607 0.9870 -0.0000
vn -0.9092 -0.0000 0.4164
vn -0.0000 -0.9901 0.1401
vn -0.7876 -0.0000 -0.6161
vt 0.426033 0.385243
vt 0.533313 0.358015
vt 0.426033 0.628531
vt 0.426033 0.144729
vt 0.368093 0.023070
vt 0.495294 0.023070
vt 0.587991 0.141541
vt 0.638305 0.018104
vt 0.639201 0.141346
vt 0.533313 0.117500
vt 0.368093 0.628531
vt 0.368093 0.385243
vt 0.270272 0.696520
vt 0.212332 0.803522
vt 0.212332 0.696520
vt 0.426033 0.328803
vt 0.533313 0.301575
vt 0.588839 0.352397
vt 0.640049 0.352202
vt -0.000000 0.343180
vt 0.261097 0.554283
vt 0.000000 0.554066
vt 0.368093 0.889411
vt 0.404337 0.628531
vt 0.426033 0.889411
vt 0.946033 0.542856
vt 1.000000 0.261397
vt 1.000000 0.670854
vt 0.909788 0.386094
vt 0.931777 0.542856
vt 0.851166 0.000303
vt 0.640309 0.261094
vt 0.640309 -0.000000
vt 0.368093 0.373218
vt 0.368093 0.554270
vt 0.261097 0.278736
vt 0.368093 -0.000000
vt 0.368093 0.278723
vt 0.288573 0.678294
vt 0.368093 0.678285
vt 0.261097 0.343397
vt 0.946033 0.374279
vt 0.909741 0.261397
vt 0.909741 0.670854
vt 0.931777 0.374279
vt 0.819483 0.732140
vt 0.909741 0.285041
vt 0.909741 0.732140
vt 0.640309 0.773628
vt 0.729896 0.261397
vt 0.729896 0.773618
vt 0.122740 0.786779
vt 0.212332 0.696520
vt 0.212332 0.786779
vt 0.819483 0.792347
vt 0.729896 0.280176
vt 0.819483 0.280195
vt 0.368093 0.328803
vt 0.640309 0.697667
vt 0.589099 0.417049
vt 0.640309 0.416854
vt 0.486947 0.628531
vt 0.638445 0.142618
vt 0.572948 0.000248
vt 0.638084 -0.000000
vt 0.481145 0.000000
vt 0.402371 0.092363
vt 0.382242 0.000000
vt 0.367732 0.554047
vt 0.302808 0.696520
vt 0.558786 0.018407
vt 0.654494 0.792535
vt 0.833927 0.261397
vt 0.895297 0.261397
vt 0.924186 0.694714
vt 0.744081 0.261397
vt 0.804994 0.261410
vt 0.851166 0.000000
vt 0.900248 0.240462
vt 0.863353 0.240462
vt 0.061370 0.696520
vt 0.110641 0.896174
vt 0.073469 0.896174
vt 0.426033 0.869128
vt 0.475093 0.628531
vt 0.486947 0.869128
vt 0.061370 0.696520
vt 0.012100 0.912510
vt 0.000000 0.696520
vt 0.368093 0.144729
vt 0.967728 0.386094
vt 0.367944 0.696512
vt 0.819483 0.285041
vt 0.985556 0.694714
vt 0.912079 0.000000
vt 0.122740 0.696520
vt 0.438198 0.628531
vt 0.270273 0.803522
vt 0.390082 0.628531
vt 0.851166 0.261397
vt 0.261097 0.000013
vt 0.640309 0.261408
vt 0.122740 0.696520
vt 0.729896 0.792329
vt 0.533313 0.698075
vt 0.461016 0.092363
vt 0.715407 0.792528
vt 0.049271 0.912510
s 0
f 27/1/1 24/2/1 9/3/1
f 14/4/2 28/5/2 30/6/2
f 11/7/3 31/8/3 12/9/3
f 30/6/4 11/10/4 14/4/4
f 27/1/5 3/11/5 26/12/5
f 9/13/6 6/14/6 3/15/6
f 7/16/1 11/10/1 1/17/1
f 1/18/7 12/9/7 4/19/7
f 15/20/8 10/21/8 17/22/8
f 2/23/6 16/24/6 7/25/6
f 18/26/9 20/27/9 33/28/9
f 10/29/10 18/26/10 17/30/10
f 7/31/11 18/32/11 14/33/11
f 10/21/8 5/34/8 13/35/8
f 26/36/8 6/37/8 23/38/8
f 28/39/8 13/35/8 29/40/8
f 23/38/8 2/41/8 26/36/8
f 16/42/9 19/43/9 20/27/9
f 18/26/9 32/44/9 17/30/9
f 17/30/9 19/43/9 15/45/9
f 21/46/5 35/47/5 22/48/5
f 34/49/8 19/50/8 32/51/8
f 21/52/6 20/53/6 19/54/6
f 20/55/7 35/56/7 33/57/7
f 7/16/5 26/12/5 2/58/5
f 1/17/1 27/1/1 7/16/1
f 8/59/12 24/60/12 25/61/12
f 4/19/7 24/60/7 1/18/7
f 37/62/7 43/62/7 42/62/7
f 37/63/13 40/64/13 36/65/13
f 40/66/14 43/67/14 41/68/14
f 38/69/7 41/70/7 43/69/7
f 40/64/15 31/8/15 30/71/15
f 28/5/16 40/66/16 30/6/16
f 29/40/17 41/70/17 28/39/17
f 32/51/18 46/72/18 34/49/18
f 35/47/19 46/73/19 47/74/19
f 33/28/20 44/75/20 32/44/20
f 33/57/21 47/76/21 45/77/21
f 46/78/22 48/79/22 50/80/22
f 47/81/23 50/82/23 51/83/23
f 47/84/24 49/85/24 45/86/24
f 45/87/25 48/88/25 44/89/25
f 70/1/26 56/3/26 68/2/26
f 59/4/27 71/5/27 57/90/27
f 58/7/3 31/8/3 72/71/3
f 72/6/28 59/4/28 58/10/28
f 54/11/9 70/1/9 69/12/9
f 6/14/6 56/13/6 54/15/6
f 58/10/26 55/16/26 52/17/26
f 12/9/7 52/18/7 4/19/7
f 57/21/8 60/20/8 62/22/8
f 61/24/6 53/23/6 55/25/6
f 63/26/5 65/27/5 61/42/5
f 57/29/10 63/26/10 59/91/10
f 63/32/29 55/31/29 59/33/29
f 5/34/8 57/21/8 13/35/8
f 6/37/8 69/36/8 23/38/8
f 71/39/8 13/35/8 57/21/8
f 53/41/8 23/38/8 69/36/8
f 61/42/5 64/43/5 60/45/5
f 73/44/5 63/26/5 62/30/5
f 64/43/5 62/30/5 60/45/5
f 76/47/9 66/46/9 67/48/9
f 64/50/8 75/49/8 73/51/8
f 65/53/6 66/52/6 64/54/6
f 76/56/7 65/55/7 74/57/7
f 69/12/9 55/16/9 53/58/9
f 70/1/26 52/17/26 55/16/26
f 68/60/12 8/59/12 25/61/12
f 68/60/7 4/19/7 52/18/7
f 37/63/7 77/64/7 42/63/7
f 43/67/30 77/66/30 78/68/30
f 38/69/31 78/70/31 39/92/31
f 31/8/15 77/64/15 72/71/15
f 71/5/32 77/66/32 78/68/32
f 78/70/17 29/40/17 71/39/17
f 81/72/18 73/51/18 75/49/18
f 76/47/20 81/73/20 75/93/20
f 73/44/19 80/94/19 74/28/19
f 74/57/21 82/76/21 76/56/21
f 85/80/22 79/95/22 81/78/22
f 82/81/25 85/82/25 81/96/25
f 80/86/24 86/97/24 82/84/24
f 83/88/23 80/87/23 79/89/23
f 14/4/2 10/90/2 28/5/2
f 11/7/3 30/71/3 31/8/3
f 27/1/5 9/3/5 3/11/5
f 9/13/6 8/98/6 6/14/6
f 7/16/1 14/4/1 11/10/1
f 1/18/7 11/7/7 12/9/7
f 15/20/8 2/41/8 10/21/8
f 2/23/6 15/99/6 16/24/6
f 18/26/9 16/42/9 20/27/9
f 10/29/10 14/91/10 18/26/10
f 7/31/11 16/100/11 18/32/11
f 10/21/8 2/41/8 5/34/8
f 26/36/8 3/101/8 6/37/8
f 28/39/8 10/21/8 13/35/8
f 23/38/8 5/34/8 2/41/8
f 16/42/9 15/45/9 19/43/9
f 18/26/9 33/28/9 32/44/9
f 17/30/9 32/44/9 19/43/9
f 21/46/5 34/93/5 35/47/5
f 34/49/8 21/102/8 19/50/8
f 21/52/6 22/103/6 20/53/6
f 20/55/7 22/104/7 35/56/7
f 7/16/5 27/1/5 26/12/5
f 1/17/1 24/2/1 27/1/1
f 8/59/12 9/105/12 24/60/12
f 4/19/7 25/61/7 24/60/7
f 37/62/7 38/62/7 43/62/7
f 37/63/7 42/63/7 40/64/7
f 40/66/14 42/106/14 43/67/14
f 38/69/31 39/92/31 41/70/31
f 40/64/15 36/65/15 31/8/15
f 28/5/16 41/68/16 40/66/16
f 29/40/17 39/92/17 41/70/17
f 32/51/18 44/107/18 46/72/18
f 35/47/19 34/93/19 46/73/19
f 33/28/20 45/94/20 44/75/20
f 33/57/21 35/56/21 47/76/21
f 46/78/22 44/95/22 48/79/22
f 47/81/23 46/96/23 50/82/23
f 47/84/24 51/97/24 49/85/24
f 45/87/25 49/108/25 48/88/25
f 59/4/27 72/6/27 71/5/27
f 58/7/3 12/9/3 31/8/3
f 54/11/9 56/3/9 70/1/9
f 6/14/6 8/98/6 56/13/6
f 58/10/26 59/4/26 55/16/26
f 12/9/7 58/7/7 52/18/7
f 57/21/8 53/41/8 60/20/8
f 61/24/6 60/99/6 53/23/6
f 63/26/5 74/28/5 65/27/5
f 57/29/10 62/30/10 63/26/10
f 63/32/29 61/100/29 55/31/29
f 5/34/8 53/41/8 57/21/8
f 6/37/8 54/101/8 69/36/8
f 71/39/8 29/40/8 13/35/8
f 53/41/8 5/34/8 23/38/8
f 61/42/5 65/27/5 64/43/5
f 73/44/5 74/28/5 63/26/5
f 64/43/5 73/44/5 62/30/5
f 76/47/9 75/93/9 66/46/9
f 64/50/8 66/102/8 75/49/8
f 65/53/6 67/103/6 66/52/6
f 76/56/7 67/104/7 65/55/7
f 69/12/9 70/1/9 55/16/9
f 70/1/26 68/2/26 52/17/26
f 68/60/12 56/105/12 8/59/12
f 68/60/7 25/61/7 4/19/7
f 37/63/13 36/65/13 77/64/13
f 43/67/30 42/106/30 77/66/30
f 38/69/7 43/69/7 78/70/7
f 31/8/15 36/65/15 77/64/15
f 71/5/32 72/6/32 77/66/32
f 78/70/17 39/92/17 29/40/17
f 81/72/18 79/107/18 73/51/18
f 76/47/20 82/74/20 81/73/20
f 73/44/19 79/75/19 80/94/19
f 74/57/21 80/77/21 82/76/21
f 85/80/22 83/79/22 79/95/22
f 82/81/25 86/83/25 85/82/25
f 80/86/24 84/85/24 86/97/24
f 83/88/23 84/108/23 80/87/23
