# Blender 5.0.0
# www.blender.org
o Plane
v 1.177129 0.053683 -0.388502
v 0.202047 -0.025181 0.603938
v 0.238659 0.110355 0.603938
v 1.177129 0.013604 -0.388502
v 0.155197 -0.024280 -0.493960
v 0.274217 0.093517 -0.493960
v 0.087668 0.323586 0.603938
v 0.102672 0.240460 -0.493960
v 1.199995 0.053732 -0.275280
v 1.199995 0.013652 -0.275280
v 0.273701 0.121511 0.233840
v 0.230179 -0.022645 -0.091712
v 0.056458 0.295636 0.264356
v 0.037579 0.956299 -0.456236
v 0.025080 0.995379 -0.326967
v 0.157049 -0.025181 0.989615
v 0.184922 0.095530 0.989615
v 0.070379 0.243935 0.989615
v 0.092078 0.007419 1.195960
v 0.110121 0.055039 1.204303
v 0.051980 0.115898 1.200216
v 0.000000 -0.061964 -0.091712
v -1.177129 0.053683 -0.388502
v -0.202047 -0.025181 0.603938
v -0.238659 0.110355 0.603938
v -1.177129 0.013604 -0.388502
v -0.155197 -0.024280 -0.493960
v -0.274217 0.093517 -0.493960
v -0.087668 0.323586 0.603938
v -0.102672 0.240460 -0.493960
v -1.199995 0.053732 -0.275280
v -1.199995 0.013652 -0.275280
v -0.273701 0.121511 0.233840
v -0.230179 -0.022645 -0.091712
v -0.056458 0.295636 0.264356
v -0.037579 0.956299 -0.456236
v -0.025080 0.995379 -0.326967
v -0.157049 -0.025181 0.989615
v -0.184922 0.095530 0.989615
v -0.070379 0.243935 0.989615
v -0.092078 0.007419 1.195960
v -0.110121 0.055039 1.204303
v -0.051980 0.115898 1.200216
v 0.000000 -0.063599 -0.493960
v 0.000000 -0.064500 0.603938
v 0.000000 -0.064500 0.989615
v 0.000000 -0.022289 1.221189
v 0.121402 0.022023 -0.574007
v 0.180702 0.093355 -0.574007
v 0.067658 0.182247 -0.574007
v -0.121402 0.022023 -0.574007
v -0.180702 0.093355 -0.574007
v -0.067658 0.182247 -0.574007
v -0.000000 0.009488 -0.574007
v -0.000000 0.087270 0.091398
vn 0.6749 -0.0000 0.7379
vn 0.1160 -0.0000 -0.9932
vn 0.7244 0.5591 0.4032
vn 0.9945 0.0903 0.0540
vn 0.0373 -0.9993 -0.0029
vn 0.9802 -0.0000 -0.1980
vn 0.0942 0.9948 0.0389
vn 0.0452 0.9989 -0.0096
vn 0.0370 -0.9993 -0.0021
vn 0.9681 -0.2235 0.1130
vn 0.8614 -0.3845 0.3320
vn 0.6237 0.7814 -0.0188
vn 0.8100 0.5736 -0.1217
vn 0.7846 0.6056 0.1326
vn 0.1684 -0.9857 0.0032
vn -0.6545 -0.1768 0.7351
vn -0.1060 -0.1071 -0.9886
vn -0.6638 0.6580 0.3554
vn -0.9945 0.0903 0.0540
vn -0.0373 -0.9993 -0.0029
vn -0.9802 -0.0000 -0.1980
vn -0.0942 0.9948 0.0389
vn -0.0452 0.9989 -0.0096
vn -0.0370 -0.9993 -0.0021
vn -0.9580 -0.2588 0.1235
vn -0.9340 -0.2157 0.2848
vn -0.6503 0.7592 -0.0287
vn -0.6303 0.7719 0.0829
vn -0.7846 0.6056 0.1326
vn 0.2367 -0.9454 0.2239
vn -0.0000 0.8545 0.5195
vn -0.0000 0.9793 0.2023
vn -0.0000 0.9966 -0.0820
vn -0.0000 0.6455 0.7638
vn -0.0000 0.9572 -0.2894
vn -0.0000 0.0526 -0.9986
vn 0.2456 -0.9694 0.0039
vn 0.1910 -0.9813 0.0223
vn -0.2456 -0.9694 0.0039
vn -0.1684 -0.9857 0.0032
vn -0.2429 -0.9701 -0.0000
vn -0.2367 -0.9454 0.2239
vn -0.1777 -0.1041 0.9786
vn 0.1777 -0.1041 0.9786
vn -0.0000 0.1501 0.9887
vn -0.6316 -0.5251 -0.5704
vn 0.2046 -0.8074 -0.5534
vn -0.0760 -0.7363 -0.6723
vn -0.0000 0.8088 -0.5881
vn 0.4728 0.6013 -0.6441
vn 0.5439 -0.5495 -0.6342
vn -0.5176 0.6042 -0.6059
vn -0.1020 0.9881 -0.1155
vn 0.7536 0.6265 -0.1989
vn -0.7536 0.6265 -0.1989
vn -0.0000 -0.9900 -0.1413
vn 0.6089 -0.7743 -0.1724
vn -0.6089 -0.7743 -0.1724
vn 0.1020 0.9881 -0.1155
vn 0.6545 -0.1768 0.7351
vn 0.1060 -0.1071 -0.9886
vn 0.6638 0.6580 0.3554
vn 0.9938 0.0867 0.0699
vn 0.0361 -0.9993 -0.0069
vn 0.0519 0.9979 -0.0383
vn 0.9580 -0.2588 0.1235
vn 0.9340 -0.2157 0.2848
vn 0.6503 0.7592 -0.0287
vn 0.6303 0.7719 0.0829
vn 0.8064 0.5710 0.1541
vn 0.1910 -0.9816 -0.0036
vn -0.6749 -0.0000 0.7379
vn -0.1160 -0.0000 -0.9932
vn -0.7244 0.5591 0.4032
vn -0.9938 0.0867 0.0699
vn -0.0361 -0.9993 -0.0069
vn -0.0519 0.9979 -0.0383
vn -0.9681 -0.2235 0.1130
vn -0.8614 -0.3845 0.3320
vn -0.6237 0.7814 -0.0188
vn -0.8100 0.5736 -0.1217
vn -0.8064 0.5710 0.1541
vn 0.3442 -0.9237 0.1684
vn 0.1683 -0.9854 -0.0274
vn 0.2429 -0.9701 -0.0000
vn -0.1683 -0.9854 -0.0274
vn -0.1910 -0.9816 -0.0036
vn -0.1910 -0.9813 0.0223
vn -0.3442 -0.9237 0.1684
vn 0.2477 0.0536 0.9673
vn -0.2477 0.0536 0.9673
vn -0.5439 -0.5495 -0.6342
vn 0.0760 -0.7363 -0.6723
vn -0.2046 -0.8074 -0.5534
vn 0.5176 0.6042 -0.6059
vn 0.6316 -0.5251 -0.5704
vn -0.4728 0.6013 -0.6441
vt 0.779789 0.763058
vt 0.746209 0.519428
vt 0.756391 0.518497
vt 0.843938 0.518837
vt 0.814881 0.748744
vt 0.833708 0.518497
vt 0.495346 0.673910
vt 0.493129 0.617809
vt 0.527709 0.619736
vt 0.186285 0.713160
vt 0.000000 0.655392
vt 0.186285 0.518497
vt -0.000000 0.156509
vt 0.238815 0.241683
vt 0.192278 0.335312
vt 0.000000 0.816812
vt 0.010179 0.788664
vt 0.010179 0.817120
vt 0.654750 0.090961
vt 0.986872 0.117906
vt 0.719736 0.159966
vt 0.834074 0.306836
vt 1.000000 0.144315
vt 0.012738 0.129886
vt 0.351492 0.104044
vt 0.461698 0.519336
vt 0.461698 0.618469
vt 0.481483 0.673956
vt 0.468865 0.672220
vt 0.798449 0.332438
vt 0.669921 0.186343
vt 0.622815 0.112751
vt 0.497134 0.518497
vt 0.285684 0.277230
vt 0.779789 0.763058
vt 0.813369 0.519428
vt 0.813369 0.775524
vt 0.872995 0.748744
vt 0.843938 0.780142
vt 0.599034 0.673910
vt 0.601252 0.617809
vt 0.612897 0.673956
vt 0.372570 0.655392
vt 0.186285 0.713160
vt 0.332786 0.312467
vt 0.480566 0.518497
vt 0.255638 0.383038
vt 0.020357 0.816812
vt 0.010179 0.788664
vt 0.020357 0.788356
vt 0.558445 0.165826
vt 0.609289 0.245823
vt 0.502639 0.494332
vt 0.723420 0.392855
vt 0.524994 0.513568
vt 0.502639 0.498905
vt 0.433978 0.166177
vt 0.632682 0.519335
vt 0.597247 0.518497
vt 0.632682 0.618469
vt 0.757018 0.364645
vt 0.647138 0.204054
vt 0.566671 0.619736
vt 0.465048 0.000000
vt 0.451909 0.056554
vt 0.419968 0.032251
vt 0.531043 0.060506
vt 0.523614 0.000000
vt 0.559443 0.038428
vt 0.587438 0.140251
vt 0.882526 0.518497
vt 0.903364 0.706022
vt 0.874507 0.706022
vt 0.990609 0.551940
vt 0.974596 0.518497
vt 0.987415 0.518497
vt 0.746209 0.700949
vt 0.710367 0.518497
vt 0.729574 0.518497
vt 0.223841 0.359331
vt 0.392618 0.135266
vt 0.484083 0.080547
vt 0.502639 0.028315
vt 0.935831 0.559923
vt 0.963439 0.570170
vt 0.951418 0.574781
vt 0.963439 0.523108
vt 0.935831 0.533355
vt 0.951418 0.518497
vt 0.971402 0.546639
vt 0.874507 0.772605
vt 0.856803 0.788356
vt 0.187009 0.356663
vt 0.236572 0.393996
vt 0.211753 0.375379
vt 0.777027 0.375805
vt 0.827750 0.337640
vt 0.804329 0.354581
vt 0.813369 0.772605
vt 0.754832 0.394324
vt 0.693732 0.691912
vt 0.663182 0.686500
vt 0.693732 0.518497
vt 0.935831 0.687231
vt 0.919597 0.684082
vt 0.935831 0.518497
vt 0.919597 0.684082
vt 0.903364 0.687231
vt 0.903364 0.518497
vt 0.433935 0.686647
vt 0.400564 0.677581
vt 0.461698 0.518497
vt 0.461698 0.694645
vt 0.372570 0.670432
vt 0.632682 0.680811
vt 0.746209 0.775524
vt 0.007387 0.689202
vt 0.000000 0.788356
vt 0.547190 0.521015
vt 0.803187 0.518497
vt 0.854168 0.518497
vt 0.365183 0.689202
vt 0.010179 0.817120
vt 0.625515 0.672220
vt 0.487634 0.009126
vt 0.502639 0.016305
vt 0.895345 0.518497
vt 0.971402 0.551940
vt 0.693732 0.700949
vt 0.831073 0.788356
s 0
f 3/1/1 10/2/1 9/3/1
f 4/4/2 6/5/2 1/6/2
f 21/7/3 17/8/3 18/9/3
f 8/10/4 15/11/4 13/12/4
f 4/13/5 12/14/5 5/15/5
f 1/16/6 10/17/6 4/18/6
f 3/19/7 9/20/7 11/21/7
f 6/22/8 9/20/8 1/23/8
f 10/24/9 2/25/9 12/14/9
f 2/26/10 17/8/10 16/27/10
f 16/27/11 20/28/11 19/29/11
f 11/21/12 8/30/12 13/31/12
f 3/19/13 13/31/13 7/32/13
f 3/33/14 18/9/14 17/8/14
f 2/25/15 22/34/15 12/14/15
f 25/35/16 32/36/16 24/37/16
f 26/4/17 28/38/17 27/39/17
f 43/40/18 39/41/18 42/42/18
f 37/43/19 30/44/19 35/12/19
f 34/45/20 26/46/20 27/47/20
f 23/48/21 32/49/21 31/50/21
f 25/51/22 33/52/22 31/53/22
f 31/53/23 28/54/23 23/55/23
f 32/56/24 34/45/24 24/57/24
f 24/58/25 39/41/25 25/59/25
f 38/60/26 42/42/26 39/41/26
f 33/52/27 30/61/27 28/54/27
f 25/51/28 35/62/28 33/52/28
f 40/63/29 25/59/29 39/41/29
f 19/64/30 46/65/30 16/66/30
f 40/67/31 21/68/31 18/69/31
f 7/32/32 40/67/32 18/69/32
f 13/31/33 29/70/33 7/32/33
f 15/71/34 35/72/34 13/73/34
f 14/74/35 37/75/35 15/76/35
f 8/77/36 36/78/36 14/79/36
f 5/15/37 22/34/37 44/80/37
f 16/66/38 45/81/38 2/25/38
f 22/34/39 27/47/39 44/80/39
f 22/34/40 24/57/40 34/45/40
f 38/82/41 45/81/41 46/65/41
f 46/65/42 41/83/42 38/82/42
f 21/84/43 19/85/43 20/86/43
f 41/87/44 43/88/44 42/89/44
f 43/88/45 47/90/45 21/84/45
f 27/39/46 52/91/46 51/92/46
f 44/80/47 48/93/47 5/15/47
f 44/80/48 51/94/48 54/95/48
f 8/30/49 53/96/49 30/61/49
f 8/30/50 49/97/50 50/98/50
f 5/39/51 49/99/51 6/5/51
f 30/61/52 52/100/52 28/54/52
f 48/101/53 54/102/53 55/103/53
f 51/104/54 52/105/54 55/106/54
f 49/107/55 48/108/55 55/109/55
f 53/110/56 50/111/56 55/112/56
f 52/113/57 53/110/57 55/112/57
f 50/111/58 49/114/58 55/112/58
f 54/102/59 51/115/59 55/103/59
f 3/1/60 2/116/60 10/2/60
f 4/4/61 5/39/61 6/5/61
f 21/7/62 20/28/62 17/8/62
f 8/10/63 14/117/63 15/11/63
f 4/13/64 10/24/64 12/14/64
f 1/16/6 9/118/6 10/17/6
f 6/22/65 11/21/65 9/20/65
f 2/26/66 3/33/66 17/8/66
f 16/27/67 17/8/67 20/28/67
f 11/21/68 6/22/68 8/30/68
f 3/19/69 11/21/69 13/31/69
f 3/33/70 7/119/70 18/9/70
f 2/25/71 45/81/71 22/34/71
f 25/35/72 31/120/72 32/36/72
f 26/4/73 23/121/73 28/38/73
f 43/40/74 40/63/74 39/41/74
f 37/43/75 36/122/75 30/44/75
f 34/45/76 32/56/76 26/46/76
f 23/48/21 26/123/21 32/49/21
f 31/53/77 33/52/77 28/54/77
f 24/58/78 38/60/78 39/41/78
f 38/60/79 41/124/79 42/42/79
f 33/52/80 35/62/80 30/61/80
f 25/51/81 29/70/81 35/62/81
f 40/63/82 29/119/82 25/59/82
f 19/64/83 47/125/83 46/65/83
f 40/67/31 43/126/31 21/68/31
f 7/32/32 29/70/32 40/67/32
f 13/31/33 35/62/33 29/70/33
f 15/71/34 37/127/34 35/72/34
f 14/74/35 36/128/35 37/75/35
f 8/77/36 30/129/36 36/78/36
f 5/15/84 12/14/84 22/34/84
f 16/66/85 46/65/85 45/81/85
f 22/34/86 34/45/86 27/47/86
f 22/34/87 45/81/87 24/57/87
f 38/82/88 24/57/88 45/81/88
f 46/65/89 47/125/89 41/83/89
f 21/84/90 47/90/90 19/85/90
f 41/87/91 47/90/91 43/88/91
f 27/39/92 28/38/92 52/91/92
f 44/80/93 54/95/93 48/93/93
f 44/80/94 27/47/94 51/94/94
f 8/30/49 50/98/49 53/96/49
f 8/30/95 6/22/95 49/97/95
f 5/39/96 48/130/96 49/99/96
f 30/61/97 53/96/97 52/100/97
