# Blender 5.0.1
# www.blender.org
o Cylinder
v -0.000000 0.000000 -0.500000
v 1.000000 0.000000 -0.500000
v 0.000000 -0.353553 -0.353553
v 1.000000 -0.353553 -0.353554
v 0.000000 -0.500000 -0.000000
v 1.000000 -0.500000 -0.000000
v 0.000000 -0.353553 0.353553
v 1.000000 -0.353553 0.353553
v 0.000000 -0.000000 0.500000
v 1.000000 0.000000 0.500000
v 0.000000 0.353553 0.353554
v 1.000000 0.353553 0.353553
v -0.000000 0.500000 0.000000
v 1.000000 0.500000 0.000000
v -0.000000 0.353553 -0.353553
v 1.000000 0.353553 -0.353553
v -0.000000 0.000000 0.000000
v 1.000000 0.000000 -0.000000
vn -0.0000 -0.3827 -0.9239
vn -0.0000 -0.9239 -0.3827
vn -0.0000 -0.9239 0.3827
vn -0.0000 -0.3827 0.9239
vn -0.0000 0.3827 0.9239
vn -0.0000 0.9239 0.3827
vn -1.0000 -0.0000 -0.0000
vn -0.0000 0.9239 -0.3827
vn -0.0000 0.3827 -0.9239
vn 1.0000 -0.0000 -0.0000
vt 1.000000 1.000000
vt 0.875000 0.500000
vt 1.000000 0.500000
vt 0.750000 1.000000
vt 0.750000 0.500000
vt 0.625000 0.500000
vt 0.500000 1.000000
vt 0.500000 0.500000
vt 0.375000 0.500000
vt 0.250000 1.000000
vt 0.250000 0.500000
vt 0.000000 0.000000
vt 0.125000 1.000000
vt 0.125000 0.500000
vt 0.000000 0.500000
vt 0.375000 1.000000
vt 0.000000 1.000000
vt 0.625000 1.000000
vt 0.875000 1.000000
s 0
f 2/1/1 3/2/1 1/3/1
f 3/2/2 6/4/2 5/5/2
f 6/4/3 7/6/3 5/5/3
f 7/6/4 10/7/4 9/8/4
f 10/7/5 11/9/5 9/8/5
f 11/9/6 14/10/6 13/11/6
f 11/9/7 17/12/7 9/8/7
f 13/11/8 16/13/8 15/14/8
f 16/13/9 1/15/9 15/14/9
f 13/11/7 17/12/7 11/9/7
f 9/8/7 17/12/7 7/6/7
f 7/6/7 17/12/7 5/5/7
f 5/5/7 17/12/7 3/2/7
f 3/2/7 17/12/7 1/3/7
f 1/3/7 17/12/7 15/14/7
f 15/14/7 17/12/7 13/11/7
f 10/7/10 18/12/10 12/16/10
f 12/16/10 18/12/10 14/10/10
f 14/10/10 18/12/10 16/13/10
f 16/13/10 18/12/10 2/17/10
f 8/18/10 18/12/10 10/7/10
f 6/4/10 18/12/10 8/18/10
f 4/19/10 18/12/10 6/4/10
f 2/17/10 18/12/10 4/19/10
f 2/1/1 4/19/1 3/2/1
f 3/2/2 4/19/2 6/4/2
f 6/4/3 8/18/3 7/6/3
f 7/6/4 8/18/4 10/7/4
f 10/7/5 12/16/5 11/9/5
f 11/9/6 12/16/6 14/10/6
f 13/11/8 14/10/8 16/13/8
f 16/13/9 2/17/9 1/15/9
