# Blender 5.0.1
# www.blender.org
o Cube
v 0.100749 -0.038207 0.096591
v 0.100749 0.016159 0.096591
v 0.100749 -0.038207 -0.101982
v 0.100749 0.016159 -0.101982
v 0.346382 -0.038207 -0.003409
v 0.346382 -0.023845 -0.003409
v 0.346382 -0.038207 -0.201982
v 0.346382 -0.023845 -0.201982
v 0.346382 -0.055642 0.129560
v 0.346382 0.029342 0.129560
v 0.430738 -0.055642 0.129560
v 0.430738 0.029342 0.129560
v 0.346382 -0.055642 -0.352756
v 0.346382 0.029342 -0.352756
v 0.430738 -0.055642 -0.352756
v 0.430738 0.029342 -0.352756
v 0.359881 -0.042042 -0.370713
v 0.359881 0.015742 -0.370713
v 0.417238 -0.042042 -0.370713
v 0.417238 0.015742 -0.370713
v 0.371190 -0.030650 -0.144034
v 0.371190 0.004349 -0.144034
v 0.405930 -0.030650 -0.144034
v 0.405930 0.004349 -0.144034
vn -0.0000 -1.0000 -0.0000
vn 0.3771 -0.0000 0.9262
vn -1.0000 -0.0000 -0.0000
vn -0.3771 -0.0000 -0.9262
vn 0.1607 0.9870 -0.0000
vn 1.0000 -0.0000 -0.0000
vn -0.0000 -0.0000 1.0000
vn -0.0000 1.0000 -0.0000
vn -0.0000 -0.7972 -0.6037
vn 0.7993 -0.0000 -0.6009
vn -0.7993 -0.0000 -0.6009
vn -0.0000 0.7972 -0.6037
vn -0.0000 0.9987 -0.0502
vn -0.9988 -0.0000 -0.0498
vn -0.0000 -0.9987 -0.0502
vn 0.9988 -0.0000 -0.0498
vt 0.261543 0.560403
vt 0.422166 0.361701
vt 0.422166 0.560403
vt 0.530508 0.929314
vt 0.542127 0.730612
vt 0.574487 0.929314
vt 0.271517 0.696812
vt 0.228840 0.964932
vt 0.228840 0.574793
vt 0.618466 0.730612
vt 0.630084 0.929314
vt 0.618466 0.929314
vt 0.530508 0.531390
vt 0.691109 0.730612
vt 0.530508 0.730093
vt 0.271517 0.857436
vt 0.297031 0.965029
vt 0.297031 0.574889
vt 0.283041 0.696829
vt 0.283041 0.857452
vt 0.365223 0.965029
vt 0.433414 0.574793
vt 0.433414 0.964932
vt 0.693507 0.920538
vt 0.761746 0.530399
vt 0.761746 0.920538
vt 0.574487 0.998060
vt 0.642726 0.929314
vt 0.642726 0.998060
vt 0.898223 0.934791
vt 0.829985 0.544704
vt 0.898223 0.544704
vt 0.704428 0.934939
vt 0.365223 0.574889
vt 0.423886 0.560403
vt 0.284734 0.560469
vt 0.840905 0.530399
vt 0.887303 0.530399
vt 0.139194 0.759625
vt 0.101944 0.942775
vt 0.092796 0.759625
vt 0.953634 0.000000
vt 0.992278 0.183255
vt 0.964195 0.183255
vt 0.000000 0.942879
vt 0.037250 0.759625
vt 0.046398 0.942879
vt 0.988568 0.530399
vt 0.949924 0.713654
vt 0.942202 0.530399
vt 0.261543 0.361701
vt 0.691109 0.531908
vt 0.530508 0.730612
vt 0.662445 0.730612
vt 0.693507 0.530399
vt 0.829985 0.934791
vt 0.750826 0.934939
vt 0.377520 0.560469
vt 0.238368 0.560403
vt 0.130046 0.942775
vt 1.000000 -0.000000
vt 0.009148 0.759625
vt 0.978007 0.713654
s 0
f 5/1/1 3/2/1 7/3/1
f 1/4/2 6/5/2 2/6/2
f 8/7/3 10/8/3 14/9/3
f 3/10/4 8/11/4 7/12/4
f 4/13/5 6/14/5 8/15/5
f 6/16/3 9/17/3 10/8/3
f 8/7/3 13/18/3 7/19/3
f 7/19/3 9/17/3 5/20/3
f 11/21/6 16/22/6 12/23/6
f 15/24/1 9/25/1 13/26/1
f 11/27/7 10/28/7 9/29/7
f 10/30/8 16/31/8 14/32/8
f 13/26/9 19/33/9 15/24/9
f 15/34/10 20/35/10 16/22/10
f 14/9/11 17/36/11 13/18/11
f 14/32/12 20/37/12 18/38/12
f 17/39/13 23/40/13 19/41/13
f 20/42/14 23/43/14 24/44/14
f 20/45/15 22/46/15 18/47/15
f 18/48/16 21/49/16 17/50/16
f 4/13/3 1/51/3 2/52/3
f 5/1/1 1/51/1 3/2/1
f 1/4/2 5/53/2 6/5/2
f 8/7/3 6/16/3 10/8/3
f 3/10/4 4/54/4 8/11/4
f 4/13/5 2/52/5 6/14/5
f 6/16/3 5/20/3 9/17/3
f 8/7/3 14/9/3 13/18/3
f 7/19/3 13/18/3 9/17/3
f 11/21/6 15/34/6 16/22/6
f 15/24/1 11/55/1 9/25/1
f 11/27/7 12/6/7 10/28/7
f 10/30/8 12/56/8 16/31/8
f 13/26/9 17/57/9 19/33/9
f 15/34/10 19/58/10 20/35/10
f 14/9/11 18/59/11 17/36/11
f 14/32/12 16/31/12 20/37/12
f 17/39/13 21/60/13 23/40/13
f 20/42/14 19/61/14 23/43/14
f 20/45/15 24/62/15 22/46/15
f 18/48/16 22/63/16 21/49/16
f 4/13/3 3/10/3 1/51/3
