# Blender 5.0.1
# www.blender.org
o Cube
v 0.048220 0.117170 0.096591
v 0.100749 -0.038207 0.096591
v 0.034082 -0.038207 0.534594
v -0.000000 0.117170 0.096591
v -0.000000 -0.038207 0.068499
v -0.000000 -0.038207 0.534594
v 0.100749 0.016159 0.096591
v -0.000000 0.016159 0.534594
v 0.034082 0.016159 0.534594
v 0.100749 -0.038207 -0.101982
v 0.048220 0.117170 -0.101982
v -0.000000 0.117170 -0.101982
v -0.000000 -0.038207 -0.101982
v 0.100749 0.016159 -0.101982
v 0.346382 -0.038207 -0.003409
v 0.346382 -0.023845 -0.003409
v 0.346382 -0.038207 -0.201982
v 0.346382 -0.023845 -0.201982
v 0.346382 -0.055642 0.129560
v 0.346382 0.029342 0.129560
v 0.430738 -0.055642 0.129560
v 0.430738 0.029342 0.129560
v -0.000000 -0.038207 0.157477
v 0.048220 0.117170 0.157477
v -0.000000 0.117170 0.157477
v 0.100749 -0.038207 0.157477
v 0.100749 0.016159 0.157477
v 0.074876 -0.038207 -0.218757
v -0.000000 -0.038207 -0.218757
v 0.074876 0.081372 -0.218757
v -0.000000 0.081372 -0.218757
v 0.346382 -0.055642 -0.352756
v 0.346382 0.029342 -0.352756
v 0.430738 -0.055642 -0.352756
v 0.430738 0.029342 -0.352756
v -0.000000 0.068050 -0.236070
v -0.000000 0.049098 -0.102136
v -0.000000 -0.006120 -0.102136
v -0.000000 -0.025073 -0.236070
v 0.061333 0.068050 -0.236070
v 0.061333 -0.025073 -0.236070
v -0.000000 0.049098 -0.102136
v -0.000000 -0.006120 -0.102136
v 0.359881 -0.042042 -0.370713
v 0.359881 0.015742 -0.370713
v 0.417238 -0.042042 -0.370713
v 0.417238 0.015742 -0.370713
v 0.371190 -0.030650 -0.144034
v 0.371190 0.004349 -0.144034
v 0.405930 -0.030650 -0.144034
v 0.405930 0.004349 -0.144034
v -0.048220 0.117170 0.096591
v -0.100749 -0.038207 0.096591
v -0.034082 -0.038207 0.534594
v -0.100749 0.016159 0.096591
v -0.034082 0.016159 0.534594
v -0.100749 -0.038207 -0.101982
v -0.048220 0.117170 -0.101982
v -0.100749 0.016159 -0.101982
v -0.346382 -0.038207 -0.003409
v -0.346382 -0.023845 -0.003409
v -0.346382 -0.038207 -0.201982
v -0.346382 -0.023845 -0.201982
v -0.346382 -0.055642 0.129560
v -0.346382 0.029342 0.129560
v -0.430738 -0.055642 0.129560
v -0.430738 0.029342 0.129560
v -0.048220 0.117170 0.157477
v -0.100749 -0.038207 0.157477
v -0.100749 0.016159 0.157477
v -0.074876 -0.038207 -0.218757
v -0.074876 0.081372 -0.218757
v -0.346382 -0.055642 -0.352756
v -0.346382 0.029342 -0.352756
v -0.430738 -0.055642 -0.352756
v -0.430738 0.029342 -0.352756
v -0.061333 0.068050 -0.236070
v -0.061333 -0.025073 -0.236070
v -0.359881 -0.042042 -0.370713
v -0.359881 0.015742 -0.370713
v -0.417238 -0.042042 -0.370713
v -0.417238 0.015742 -0.370713
v -0.371190 -0.030650 -0.144034
v -0.371190 0.004349 -0.144034
v -0.405930 -0.030650 -0.144034
v -0.405930 0.004349 -0.144034
vn 0.8765 0.4558 0.1549
vn 0.9763 -0.0000 -0.2163
vn -0.0000 0.9561 -0.2931
vn 0.8856 0.4605 0.0610
vn 0.9847 -0.0000 0.1741
vn -0.0000 -0.0000 1.0000
vn 0.8872 0.4614 -0.0000
vn -0.0000 1.0000 -0.0000
vn -0.0000 -1.0000 -0.0000
vn 0.3771 -0.0000 0.9262
vn -1.0000 -0.0000 -0.0000
vn -0.3771 -0.0000 -0.9262
vn 0.1607 0.9870 -0.0000
vn 1.0000 -0.0000 -0.0000
vn -0.0000 0.9660 0.2587
vn -0.0000 0.9901 0.1401
vn 0.9092 -0.0000 0.4164
vn -0.0000 0.7925 -0.6098
vn 0.7876 -0.0000 -0.6161
vn -0.0000 -0.7967 -0.6044
vn -0.0000 -0.7972 -0.6037
vn 0.7993 -0.0000 -0.6009
vn -0.7993 -0.0000 -0.6009
vn -0.0000 0.7972 -0.6037
vn -0.0000 0.9987 -0.0502
vn -0.9988 -0.0000 -0.0498
vn -0.0000 -0.9987 -0.0502
vn 0.9988 -0.0000 -0.0498
vn -0.8765 0.4558 0.1549
vn -0.9763 -0.0000 -0.2163
vn -0.8856 0.4605 0.0610
vn -0.9847 -0.0000 0.1741
vn -0.8872 0.4614 -0.0000
vn -0.3771 -0.0000 0.9262
vn 0.3771 -0.0000 -0.9262
vn -0.1607 0.9870 -0.0000
vn -0.9092 -0.0000 0.4164
vn -0.0000 -0.9901 0.1401
vn -0.7876 -0.0000 -0.6161
vt 0.737131 0.318044
vt 0.823571 0.318396
vt 0.737131 0.530337
vt 0.737131 0.108170
vt 0.696161 0.014005
vt 0.792112 0.013869
vt 0.573001 0.107659
vt 0.612008 0.013789
vt 0.612008 0.107659
vt 0.823571 0.108523
vt 0.693507 0.530399
vt 0.693507 0.318106
vt 0.997613 0.366511
vt 0.953634 0.448010
vt 0.953634 0.366511
vt 0.737131 0.268794
vt 0.823571 0.269147
vt 0.573001 0.268261
vt 0.612008 0.268261
vt 0.261543 0.560403
vt 0.422166 0.361701
vt 0.422166 0.560403
vt 0.530508 0.929314
vt 0.542127 0.730612
vt 0.574487 0.929314
vt 0.271517 0.696812
vt 0.228840 0.964932
vt 0.228840 0.574793
vt 0.618466 0.730612
vt 0.630084 0.929314
vt 0.618466 0.929314
vt 0.530508 0.531390
vt 0.691109 0.730612
vt 0.530508 0.730093
vt 0.284266 0.280202
vt 0.422166 0.280202
vt 0.212293 0.280201
vt 0.000000 0.361701
vt 0.000000 0.280201
vt 0.516623 0.340772
vt 0.516623 0.280202
vt 0.261543 0.361701
vt 0.212293 0.361701
vt 0.271517 0.857436
vt 0.297031 0.965029
vt 0.297031 0.574889
vt 0.283041 0.696829
vt 0.283041 0.857452
vt 0.365223 0.965029
vt 0.433414 0.574793
vt 0.433414 0.964932
vt 0.693507 0.920538
vt 0.761746 0.530399
vt 0.761746 0.920538
vt 0.574487 0.998060
vt 0.642726 0.929314
vt 0.642726 0.998060
vt 0.898223 0.934791
vt 0.829985 0.544704
vt 0.898223 0.544704
vt 0.693507 0.268856
vt 0.612008 0.317505
vt 0.530508 0.531390
vt 0.573001 0.317505
vt 0.228840 0.560403
vt 0.612008 0.108627
vt 0.562393 -0.000000
vt 0.612008 -0.000000
vt 0.782812 -0.000000
vt 0.729588 0.108968
vt 0.708089 0.000106
vt 0.421998 0.280202
vt 0.530508 0.329816
vt 0.551437 0.013789
vt 0.704428 0.934939
vt 0.365223 0.574889
vt 0.423886 0.560403
vt 0.284734 0.560469
vt 0.840905 0.530399
vt 0.887303 0.530399
vt 0.139194 0.759625
vt 0.101944 0.942775
vt 0.092796 0.759625
vt 0.953634 0.000000
vt 0.992278 0.183255
vt 0.964195 0.183255
vt 0.000000 0.942879
vt 0.037250 0.759625
vt 0.046398 0.942879
vt 0.988568 0.530399
vt 0.949924 0.713654
vt 0.942202 0.530399
vt 0.910010 0.318044
vt 0.910010 0.530337
vt 0.823571 0.318396
vt 0.910010 0.108170
vt 0.950980 0.014005
vt 0.953634 0.108232
vt 0.651015 0.107659
vt 0.672578 0.013789
vt 0.855029 0.013869
vt 0.823571 0.108523
vt 0.953634 0.530399
vt 0.953634 0.318106
vt 0.997613 0.529510
vt 0.953634 0.529510
vt 0.910010 0.268794
vt 0.823571 0.269147
vt 0.651015 0.268261
vt 0.422166 0.198702
vt 0.261543 0.000000
vt 0.422166 0.000000
vt 0.909842 0.729101
vt 0.898223 0.530399
vt 0.942202 0.530399
vt 0.322546 0.696812
vt 0.365223 0.964932
vt 0.322546 0.857436
vt 0.574487 0.929314
vt 0.586105 0.730612
vt 0.618466 0.929314
vt 0.160601 0.560403
vt -0.000000 0.759625
vt -0.000000 0.560922
vt 0.000000 0.198702
vt 0.212293 0.198702
vt 0.516623 0.219631
vt 0.261543 0.198702
vt 0.297031 0.965029
vt 0.311022 0.857452
vt 0.297031 0.574890
vt 0.311022 0.696829
vt 0.433415 0.574793
vt 0.501606 0.965029
vt 0.433415 0.964932
vt 0.829985 0.920538
vt 0.506248 0.929314
vt 0.506248 0.998060
vt 0.228840 0.574708
vt 0.160601 0.964795
vt 0.160601 0.574708
vt 0.953634 0.268856
vt 0.693507 0.531390
vt 0.612008 0.531390
vt 0.651015 0.317505
vt 0.661622 -0.000000
vt 0.917554 0.108968
vt 0.864330 -0.000000
vt 0.939052 0.000106
vt 0.530508 0.230587
vt 0.530508 0.280202
vt 0.819064 0.934939
vt 0.442943 0.560403
vt 0.501606 0.574889
vt 0.355695 0.560403
vt 0.365223 0.574793
vt 0.217919 0.560403
vt 0.935474 0.912252
vt 0.898223 0.729101
vt 0.944621 0.729101
vt 0.989439 0.366511
vt 0.953634 0.183255
vt 1.000000 0.183255
vt 0.055546 0.759625
vt 0.092796 0.942879
vt 0.983266 0.912357
vt 0.944622 0.729101
vt 0.990988 0.729101
vt 0.693507 0.108232
vt 0.997613 0.448010
vt 0.530508 0.730612
vt 0.662445 0.730612
vt 0.691109 0.531908
vt 0.829985 0.934791
vt 0.773895 0.108905
vt 0.750826 0.934939
vt 0.377520 0.560469
vt 0.238368 0.560403
vt 0.130046 0.942775
vt 1.000000 -0.000000
vt 0.009148 0.759625
vt 0.978007 0.713654
vt 0.898223 0.729101
vt 0.574487 0.730612
vt 0.160601 0.759106
vt 0.829985 0.530399
vt 0.228840 0.964795
vt 0.873246 0.108905
vt 0.772666 0.934939
vt 0.489309 0.560469
vt 0.309329 0.560469
vt 0.171521 0.560403
vt 0.907371 0.912252
vt 0.961356 0.366511
vt 0.083648 0.759625
vt 0.955182 0.912357
s 0
f 27/1/1 24/2/1 9/3/1
f 14/4/2 28/5/2 30/6/2
f 11/7/3 31/8/3 12/9/3
f 30/6/4 11/10/4 14/4/4
f 27/1/5 3/11/5 26/12/5
f 9/13/6 6/14/6 3/15/6
f 7/16/7 11/10/7 1/17/7
f 1/18/8 12/9/8 4/19/8
f 15/20/9 10/21/9 17/22/9
f 2/23/10 16/24/10 7/25/10
f 18/26/11 20/27/11 33/28/11
f 10/29/12 18/30/12 17/31/12
f 14/32/13 16/33/13 18/34/13
f 10/21/9 5/35/9 13/36/9
f 23/37/9 3/38/9 6/39/9
f 28/40/9 13/36/9 29/41/9
f 23/37/9 2/42/9 26/43/9
f 16/44/11 19/45/11 20/27/11
f 18/26/11 32/46/11 17/47/11
f 17/47/11 19/45/11 15/48/11
f 21/49/14 35/50/14 22/51/14
f 34/52/9 19/53/9 32/54/9
f 21/55/6 20/56/6 19/57/6
f 20/58/8 35/59/8 33/60/8
f 7/16/14 26/12/14 2/61/14
f 1/17/7 27/1/7 7/16/7
f 25/62/15 9/63/15 24/64/15
f 4/19/8 24/64/8 1/18/8
f 37/65/8 43/65/8 42/65/8
f 37/66/16 40/67/16 36/68/16
f 40/69/17 43/70/17 41/71/17
f 38/72/8 41/73/8 43/72/8
f 40/67/18 31/8/18 30/74/18
f 28/5/19 40/69/19 30/6/19
f 29/41/20 41/73/20 28/40/20
f 32/54/21 46/75/21 34/52/21
f 34/76/22 47/77/22 35/50/22
f 33/28/23 44/78/23 32/46/23
f 33/60/24 47/79/24 45/80/24
f 44/81/25 50/82/25 46/83/25
f 47/84/26 50/85/26 51/86/26
f 47/87/27 49/88/27 45/89/27
f 45/90/28 48/91/28 44/92/28
f 70/93/29 56/94/29 68/95/29
f 59/96/30 71/97/30 57/98/30
f 58/99/3 31/8/3 72/100/3
f 72/101/31 59/96/31 58/102/31
f 54/103/32 70/93/32 69/104/32
f 6/14/6 56/105/6 54/106/6
f 58/102/33 55/107/33 52/108/33
f 12/9/8 52/109/8 4/19/8
f 57/110/9 60/111/9 62/112/9
f 61/113/34 53/114/34 55/115/34
f 63/116/14 65/117/14 61/118/14
f 57/119/35 63/120/35 59/121/35
f 59/122/36 61/123/36 55/124/36
f 5/35/9 57/110/9 13/36/9
f 23/37/9 54/125/9 69/126/9
f 71/127/9 13/36/9 57/110/9
f 53/128/9 23/37/9 69/126/9
f 61/118/14 64/129/14 60/130/14
f 73/131/14 63/116/14 62/132/14
f 64/129/14 62/132/14 60/130/14
f 76/133/11 66/134/11 67/135/11
f 64/53/9 75/136/9 73/54/9
f 65/137/6 66/55/6 64/138/6
f 76/139/8 65/140/8 74/141/8
f 69/104/11 55/107/11 53/142/11
f 70/93/33 52/108/33 55/107/33
f 25/62/15 56/143/15 8/144/15
f 68/145/8 4/19/8 52/109/8
f 37/66/8 77/146/8 42/66/8
f 43/147/37 77/148/37 78/149/37
f 38/72/38 78/150/38 39/151/38
f 31/8/18 77/146/18 72/100/18
f 71/97/39 77/148/39 78/149/39
f 78/150/20 29/41/20 71/127/20
f 81/152/21 73/54/21 75/136/21
f 82/153/23 75/154/23 76/133/23
f 73/131/22 80/155/22 74/156/22
f 74/141/24 82/157/24 76/139/24
f 85/158/25 79/159/25 81/160/25
f 86/161/28 81/162/28 82/163/28
f 84/164/27 82/165/27 80/89/27
f 83/166/26 80/167/26 79/168/26
f 14/4/2 10/169/2 28/5/2
f 11/7/3 30/74/3 31/8/3
f 27/1/5 9/3/5 3/11/5
f 9/13/6 8/170/6 6/14/6
f 7/16/7 14/4/7 11/10/7
f 1/18/8 11/7/8 12/9/8
f 15/20/9 2/42/9 10/21/9
f 2/23/10 15/171/10 16/24/10
f 18/26/11 16/44/11 20/27/11
f 10/29/12 14/172/12 18/30/12
f 14/32/13 7/173/13 16/33/13
f 10/21/9 2/42/9 5/35/9
f 23/37/9 26/43/9 3/38/9
f 28/40/9 10/21/9 13/36/9
f 23/37/9 5/35/9 2/42/9
f 16/44/11 15/48/11 19/45/11
f 18/26/11 33/28/11 32/46/11
f 17/47/11 32/46/11 19/45/11
f 21/49/14 34/76/14 35/50/14
f 34/52/9 21/11/9 19/53/9
f 21/55/6 22/25/6 20/56/6
f 20/58/8 22/174/8 35/59/8
f 7/16/14 27/1/14 26/12/14
f 1/17/7 24/2/7 27/1/7
f 25/62/15 8/144/15 9/63/15
f 4/19/8 25/62/8 24/64/8
f 37/65/8 38/65/8 43/65/8
f 37/66/8 42/66/8 40/67/8
f 40/69/17 42/175/17 43/70/17
f 38/72/38 39/151/38 41/73/38
f 40/67/18 36/68/18 31/8/18
f 28/5/19 41/71/19 40/69/19
f 29/41/20 39/151/20 41/73/20
f 32/54/21 44/176/21 46/75/21
f 34/76/22 46/177/22 47/77/22
f 33/28/23 45/178/23 44/78/23
f 33/60/24 35/59/24 47/79/24
f 44/81/25 48/179/25 50/82/25
f 47/84/26 46/180/26 50/85/26
f 47/87/27 51/181/27 49/88/27
f 45/90/28 49/182/28 48/91/28
f 59/96/30 72/101/30 71/97/30
f 58/99/3 12/9/3 31/8/3
f 54/103/32 56/94/32 70/93/32
f 6/14/6 8/170/6 56/105/6
f 58/102/33 59/96/33 55/107/33
f 12/9/8 58/99/8 52/109/8
f 57/110/9 53/128/9 60/111/9
f 61/113/34 60/183/34 53/114/34
f 63/116/14 74/156/14 65/117/14
f 57/119/35 62/184/35 63/120/35
f 59/122/36 63/185/36 61/123/36
f 5/35/9 53/128/9 57/110/9
f 23/37/9 6/39/9 54/125/9
f 71/127/9 29/41/9 13/36/9
f 53/128/9 5/35/9 23/37/9
f 61/118/14 65/117/14 64/129/14
f 73/131/14 74/156/14 63/116/14
f 64/129/14 73/131/14 62/132/14
f 76/133/11 75/154/11 66/134/11
f 64/53/9 66/186/9 75/136/9
f 65/137/6 67/25/6 66/55/6
f 76/139/8 67/187/8 65/140/8
f 69/104/11 70/93/11 55/107/11
f 70/93/33 68/95/33 52/108/33
f 25/62/15 68/145/15 56/143/15
f 68/145/8 25/62/8 4/19/8
f 37/66/16 36/68/16 77/146/16
f 43/147/37 42/188/37 77/148/37
f 38/72/8 43/72/8 78/150/8
f 31/8/18 36/68/18 77/146/18
f 71/97/39 72/101/39 77/148/39
f 78/150/20 39/151/20 29/41/20
f 81/152/21 79/189/21 73/54/21
f 82/153/23 81/190/23 75/154/23
f 73/131/22 79/191/22 80/155/22
f 74/141/24 80/192/24 82/157/24
f 85/158/25 83/193/25 79/159/25
f 86/161/28 85/194/28 81/162/28
f 84/164/27 86/195/27 82/165/27
f 83/166/26 84/196/26 80/167/26
